<svg xmlns="http://www.w3.org/2000/svg" viewBox="0 0 320.25 183.000001" preserveAspectRatio="xMidYMid meet">
  <defs>
    <clipPath id="0a9bfec1c6">
      <path d="M 0.496094 0 L 318.941406 0 L 318.941406 182 L 0.496094 182 Z M 0.496094 0 " clip-rule="nonzero"/>
    </clipPath>
    <clipPath id="1829dbb53e">
      <path d="M 135 32 L 185 32 L 185 145.492188 L 135 145.492188 Z M 135 32 " clip-rule="nonzero"/>
    </clipPath>
  </defs>
  <g clip-path="url(#0a9bfec1c6)">
    <path fill="#000000" d="M 292.171875 162.464844 L 292.171875 8.492188 C 292.171875 3.703125 288.488281 0.0195312 283.699219 0.0195312 L 36.164062 0.0195312 C 31.375 0.0195312 27.691406 3.703125 27.691406 8.492188 L 27.691406 162.832031 L 0.433594 162.832031 L 0.433594 172.777344 C 4.117188 178.671875 23.640625 181.988281 31.007812 181.988281 L 288.484375 181.988281 C 296.222656 181.988281 315.742188 178.304688 319.058594 172.777344 L 319.058594 162.832031 L 292.171875 162.832031 Z M 38.007812 11.070312 L 281.859375 11.070312 L 281.859375 162.832031 L 38.007812 162.832031 Z M 38.007812 11.070312 " fill-opacity="1" fill-rule="nonzero"/>
  </g>
  <path fill="#000000" d="M 119.527344 129.417969 C 117.121094 129.417969 115.519531 128.617188 113.917969 127.007812 L 81.851562 94.859375 C 78.648438 91.644531 78.648438 86.824219 81.851562 83.609375 L 113.917969 51.460938 C 117.121094 48.246094 121.933594 48.246094 125.140625 51.460938 C 128.34375 54.675781 128.34375 59.496094 125.140625 62.710938 L 98.6875 89.234375 L 125.140625 115.757812 C 128.34375 118.972656 128.34375 123.792969 125.140625 127.007812 C 123.535156 128.617188 121.933594 129.417969 119.527344 129.417969 Z" fill-opacity="1" fill-rule="nonzero"/>
  <path fill="#000000" d="M 199.6875 129.417969 C 197.28125 129.417969 195.679688 128.617188 194.074219 127.007812 C 190.871094 123.792969 190.871094 118.972656 194.074219 115.757812 L 220.527344 89.234375 L 194.074219 62.710938 C 190.871094 59.496094 190.871094 54.675781 194.074219 51.460938 C 197.28125 48.246094 202.089844 48.246094 205.296875 51.460938 L 237.363281 83.609375 C 240.566406 86.824219 240.566406 91.644531 237.363281 94.859375 L 205.296875 127.007812 C 203.695312 128.617188 202.089844 129.417969 199.6875 129.417969 Z" fill-opacity="1" fill-rule="nonzero"/>
  <g clip-path="url(#1829dbb53e)">
    <path fill="#000000" d="M 143.574219 145.492188 C 142.773438 145.492188 141.972656 145.492188 141.171875 144.691406 C 137.164062 143.082031 134.757812 139.0625 136.359375 134.242188 L 168.425781 37.796875 C 170.027344 33.777344 174.035156 31.367188 178.84375 32.972656 C 182.851562 34.582031 185.257812 38.601562 183.65625 43.421875 L 151.589844 139.867188 C 149.988281 143.082031 146.78125 145.492188 143.574219 145.492188 Z" fill-opacity="1" fill-rule="nonzero"/>
  </g>
</svg>
